<?xml version="1.0" encoding="UTF-8"?>
<svg width="200mm" height="200mm" version="1.1" viewBox="0 0 200 200" xmlns="http://www.w3.org/2000/svg" xmlns:cc="http://creativecommons.org/ns#" xmlns:dc="http://purl.org/dc/elements/1.1/" xmlns:rdf="http://www.w3.org/1999/02/22-rdf-syntax-ns#">
 <metadata>
  <rdf:RDF>
   <cc:Work rdf:about="">
    <dc:format>image/svg+xml</dc:format>
    <dc:type rdf:resource="http://purl.org/dc/dcmitype/StillImage"/>
    <dc:title/>
   </cc:Work>
  </rdf:RDF>
 </metadata>
 <g transform="translate(-27 -54.125)">
  <rect x="30.689" y="57.814" width="192.62" height="192.62" ry="0" fill="none" stroke="#000" stroke-width="7.3775"/>
  <g transform="translate(432.65 -1537.5)">
   <path d="m-381.3 1645.9h10.59v5.1045q2.6665-3.1237 5.1806-4.4188 2.5903-1.3714 6.0949-1.3714 8.0757 0 11.199 6.0949 4.5712-6.0949 12.037-6.0949 6.1711 0 9.5994 3.3522 3.5046 3.3522 3.5046 9.3709v29.103h-10.666v-27.427q0-2.438-1.5999-3.8855-1.5237-1.4475-4.1902-1.4475-3.4284 0-5.4092 2.1332-1.9046 2.1332-1.9046 5.9425v24.684h-10.666v-27.427q0-2.438-1.5999-3.8855-1.5237-1.4475-4.1902-1.4475-3.4284 0-5.4092 2.1332-1.9046 2.1332-1.9046 5.9425v24.684h-10.666z"/>
   <path d="m-290.06 1645.2q9.6756 0 15.009 5.8663 5.4092 5.7902 5.4092 16.228 0 9.9042-5.4854 15.694-5.4854 5.7901-14.856 5.7901-9.5232 0-14.932-5.7901-5.4092-5.8663-5.4092-15.999 0-10.133 5.4092-15.923 5.4092-5.8663 14.856-5.8663zm0.0762 8.609q-4.3426 0-7.0091 3.657-2.6665 3.6569-2.6665 9.5232t2.6665 9.5233q2.6665 3.6569 7.0091 3.6569 4.2664 0 6.9329-3.5807 2.7427-3.657 2.7427-9.4471 0-6.0949-2.6665-9.6756-2.5903-3.657-7.0091-3.657z"/>
   <path d="m-357.53 1708.9v-17.718h10.631v45.949h-10.631v-4.7839q-2.1852 2.9236-4.8134 4.2819-2.6282 1.3584-6.0832 1.3584-6.1127 0-10.04-4.8429-3.9275-4.8726-3.9275-12.521 0-7.6483 3.9275-12.491 3.9275-4.8725 10.04-4.8725 3.4255 0 6.0537 1.3879 2.6577 1.3585 4.8429 4.2524zm-6.9691 21.409q3.396 0 5.1678-2.4805 1.8013-2.4804 1.8013-7.2053t-1.8013-7.2054q-1.7718-2.4805-5.1678-2.4805-3.3664 0-5.1678 2.4805-1.7718 2.4805-1.7718 7.2054t1.7718 7.2053q1.8013 2.4805 5.1678 2.4805z"/>
   <path d="m-333.76 1711.4v-20.231h10.648v3.3127c0 1.7944-0.0102 4.0522-0.0296 6.7733-0.0197 2.7015-0.0296 4.5057-0.0296 5.4127 0 2.662 0.069 4.5846 0.20703 5.7677 0.13803 1.1633 0.37466 2.0113 0.70988 2.5437 0.4338 0.6901 0.99578 1.2225 1.6859 1.5972 0.70987 0.3746 1.5183 0.5619 2.4254 0.5619 2.2085 0 3.9437-0.8478 5.2057-2.5436 1.262-1.6959 1.893-4.0522 1.893-7.0691v-16.356h10.589v33.127h-10.589v-3.2076c-3.7963 2.1919-3.293 1.778-5.0874 2.7048-1.7747 0.907-3.7367 1.3606-5.886 1.3606-3.8254 0-6.7437-1.1733-8.755-3.5198-1.9916-2.3464-2.9874-5.7578-2.9874-10.234z"/>
   <g transform="matrix(1.9047 0 0 1.9047 -1142.3 -8522.2)" stroke-width="3.4008" aria-label="o">
    <path d="m468.83 5364q5.08 0 7.88 3.08 2.84 3.04 2.84 8.52 0 5.2-2.88 8.24t-7.8 3.04q-5 0-7.84-3.04-2.84-3.08-2.84-8.4t2.84-8.36q2.84-3.08 7.8-3.08zm0.04 4.52q-2.28 0-3.68 1.92t-1.4 5 1.4 5 3.68 1.92q2.24 0 3.64-1.88 1.44-1.92 1.44-4.96 0-3.2-1.4-5.08-1.36-1.92-3.68-1.92z"/>
   </g>
   <g transform="matrix(1.4694 .84833 -1.7374 3.0093 8384.1 -14865)" stroke-width="3.4008" aria-label="l">
    <path d="m464.79 5356.8v29.16h-5.6v-29.16z"/>
   </g>
  </g>
 </g>
</svg>
